<mxfile host="app.diagrams.net" agent="Mozilla/5.0 (Windows NT 10.0; Win64; x64) AppleWebKit/537.36 (KHTML, like Gecko) Chrome/138.0.0.0 Safari/537.36" version="28.0.7">
  <diagram name="Trang-1" id="iVu9Qs8bW8wLOcYcg1Za">
    <mxGraphModel dx="4968" dy="2472" grid="0" gridSize="10" guides="1" tooltips="1" connect="1" arrows="1" fold="1" page="0" pageScale="1" pageWidth="827" pageHeight="1169" background="none" math="0" shadow="0">
      <root>
        <mxCell id="0" />
        <mxCell id="1" parent="0" />
        <mxCell id="6jUY_ZIcOzGlpgEevd6P-2" value="" style="rounded=0;whiteSpace=wrap;html=1;" parent="1" vertex="1">
          <mxGeometry x="-268" y="-303" width="734" height="722" as="geometry" />
        </mxCell>
        <mxCell id="6jUY_ZIcOzGlpgEevd6P-5" value="&lt;font style=&quot;font-size: 16px;&quot;&gt;&amp;nbsp;Logo shop&lt;/font&gt;" style="rounded=0;whiteSpace=wrap;html=1;" parent="1" vertex="1">
          <mxGeometry x="-255" y="-278" width="86" height="46" as="geometry" />
        </mxCell>
        <mxCell id="6jUY_ZIcOzGlpgEevd6P-10" value="Search" style="rounded=0;whiteSpace=wrap;html=1;" parent="1" vertex="1">
          <mxGeometry x="-26" y="-261" width="148" height="22.5" as="geometry" />
        </mxCell>
        <mxCell id="6jUY_ZIcOzGlpgEevd6P-11" value="Order" style="rounded=0;whiteSpace=wrap;html=1;" parent="1" vertex="1">
          <mxGeometry x="167.5" y="-264.5" width="69" height="26" as="geometry" />
        </mxCell>
        <mxCell id="6jUY_ZIcOzGlpgEevd6P-14" value="" style="verticalLabelPosition=bottom;shadow=0;dashed=0;align=center;html=1;verticalAlign=top;strokeWidth=1;shape=mxgraph.mockup.misc.shoppingCart;strokeColor=#999999;" parent="1" vertex="1">
          <mxGeometry x="282" y="-275" width="35" height="34" as="geometry" />
        </mxCell>
        <mxCell id="6jUY_ZIcOzGlpgEevd6P-15" value="User" style="sketch=0;outlineConnect=0;fontColor=#232F3E;gradientColor=none;strokeColor=#232F3E;fillColor=#ffffff;dashed=0;verticalLabelPosition=bottom;verticalAlign=top;align=center;html=1;fontSize=12;fontStyle=0;aspect=fixed;shape=mxgraph.aws4.resourceIcon;resIcon=mxgraph.aws4.user;" parent="1" vertex="1">
          <mxGeometry x="370" y="-272.5" width="42" height="42" as="geometry" />
        </mxCell>
        <mxCell id="6jUY_ZIcOzGlpgEevd6P-19" value="" style="endArrow=none;html=1;rounded=0;exitX=0.003;exitY=0.134;exitDx=0;exitDy=0;exitPerimeter=0;entryX=0.998;entryY=0.136;entryDx=0;entryDy=0;entryPerimeter=0;" parent="1" source="6jUY_ZIcOzGlpgEevd6P-2" target="6jUY_ZIcOzGlpgEevd6P-2" edge="1">
          <mxGeometry width="50" height="50" relative="1" as="geometry">
            <mxPoint x="-279" y="-217" as="sourcePoint" />
            <mxPoint x="469" y="-206" as="targetPoint" />
          </mxGeometry>
        </mxCell>
        <mxCell id="6jUY_ZIcOzGlpgEevd6P-20" value="" style="whiteSpace=wrap;html=1;aspect=fixed;shape=image;verticalAlign=top;verticalLabelPosition=bottom;labelBackgroundColor=#ffffff;imageAspect=0;image=https://icons.diagrams.net/icon-cache1/Evil_Icons_User_Interface-2617/picture-609.svg;" parent="1" vertex="1">
          <mxGeometry x="-203" y="-6" width="80" height="80" as="geometry" />
        </mxCell>
        <mxCell id="6jUY_ZIcOzGlpgEevd6P-21" value="" style="whiteSpace=wrap;html=1;aspect=fixed;shape=image;verticalAlign=top;verticalLabelPosition=bottom;labelBackgroundColor=#ffffff;imageAspect=0;image=https://icons.diagrams.net/icon-cache1/Evil_Icons_User_Interface-2617/picture-609.svg;" parent="1" vertex="1">
          <mxGeometry x="-29" y="-6" width="80" height="80" as="geometry" />
        </mxCell>
        <mxCell id="6jUY_ZIcOzGlpgEevd6P-22" value="" style="whiteSpace=wrap;html=1;aspect=fixed;shape=image;verticalAlign=top;verticalLabelPosition=bottom;labelBackgroundColor=#ffffff;imageAspect=0;image=https://icons.diagrams.net/icon-cache1/Evil_Icons_User_Interface-2617/picture-609.svg;" parent="1" vertex="1">
          <mxGeometry x="162" y="-6" width="80" height="80" as="geometry" />
        </mxCell>
        <mxCell id="6jUY_ZIcOzGlpgEevd6P-23" value="" style="whiteSpace=wrap;html=1;aspect=fixed;shape=image;verticalAlign=top;verticalLabelPosition=bottom;labelBackgroundColor=#ffffff;imageAspect=0;image=https://icons.diagrams.net/icon-cache1/Evil_Icons_User_Interface-2617/picture-609.svg;" parent="1" vertex="1">
          <mxGeometry x="335" y="-6" width="80" height="80" as="geometry" />
        </mxCell>
        <mxCell id="6jUY_ZIcOzGlpgEevd6P-24" value="" style="whiteSpace=wrap;html=1;aspect=fixed;shape=image;verticalAlign=top;verticalLabelPosition=bottom;labelBackgroundColor=#ffffff;imageAspect=0;image=https://icons.diagrams.net/icon-cache1/Evil_Icons_User_Interface-2617/picture-609.svg;" parent="1" vertex="1">
          <mxGeometry x="-206" y="120" width="80" height="80" as="geometry" />
        </mxCell>
        <mxCell id="6jUY_ZIcOzGlpgEevd6P-27" value="" style="whiteSpace=wrap;html=1;aspect=fixed;shape=image;verticalAlign=top;verticalLabelPosition=bottom;labelBackgroundColor=#ffffff;imageAspect=0;image=https://icons.diagrams.net/icon-cache1/Evil_Icons_User_Interface-2617/picture-609.svg;" parent="1" vertex="1">
          <mxGeometry x="-29" y="118" width="80" height="80" as="geometry" />
        </mxCell>
        <mxCell id="6jUY_ZIcOzGlpgEevd6P-28" value="" style="whiteSpace=wrap;html=1;aspect=fixed;shape=image;verticalAlign=top;verticalLabelPosition=bottom;labelBackgroundColor=#ffffff;imageAspect=0;image=https://icons.diagrams.net/icon-cache1/Evil_Icons_User_Interface-2617/picture-609.svg;" parent="1" vertex="1">
          <mxGeometry x="337" y="120" width="80" height="80" as="geometry" />
        </mxCell>
        <mxCell id="6jUY_ZIcOzGlpgEevd6P-29" value="" style="whiteSpace=wrap;html=1;aspect=fixed;shape=image;verticalAlign=top;verticalLabelPosition=bottom;labelBackgroundColor=#ffffff;imageAspect=0;image=https://icons.diagrams.net/icon-cache1/Evil_Icons_User_Interface-2617/picture-609.svg;" parent="1" vertex="1">
          <mxGeometry x="162" y="114" width="80" height="80" as="geometry" />
        </mxCell>
        <mxCell id="6jUY_ZIcOzGlpgEevd6P-31" value="" style="rounded=0;whiteSpace=wrap;html=1;" parent="1" vertex="1">
          <mxGeometry x="-470" y="493" width="464" height="380" as="geometry" />
        </mxCell>
        <mxCell id="6jUY_ZIcOzGlpgEevd6P-32" value="&lt;font style=&quot;font-size: 16px;&quot;&gt;Register&lt;/font&gt;" style="rounded=0;whiteSpace=wrap;html=1;" parent="1" vertex="1">
          <mxGeometry x="-235" y="544" width="205.5" height="37" as="geometry" />
        </mxCell>
        <mxCell id="6jUY_ZIcOzGlpgEevd6P-33" value="&lt;font style=&quot;font-size: 16px;&quot;&gt;Login&lt;/font&gt;" style="rounded=0;whiteSpace=wrap;html=1;fillColor=#1ba1e2;fontColor=#ffffff;strokeColor=#006EAF;" parent="1" vertex="1">
          <mxGeometry x="-456" y="544" width="201" height="37" as="geometry" />
        </mxCell>
        <mxCell id="6jUY_ZIcOzGlpgEevd6P-34" value="" style="shape=sumEllipse;perimeter=ellipsePerimeter;whiteSpace=wrap;html=1;backgroundOutline=1;" parent="1" vertex="1">
          <mxGeometry x="-43" y="507" width="27" height="26" as="geometry" />
        </mxCell>
        <mxCell id="6jUY_ZIcOzGlpgEevd6P-35" value="" style="endArrow=none;html=1;rounded=0;exitX=0;exitY=0.75;exitDx=0;exitDy=0;entryX=1;entryY=0.75;entryDx=0;entryDy=0;" parent="1" source="6jUY_ZIcOzGlpgEevd6P-2" target="6jUY_ZIcOzGlpgEevd6P-2" edge="1">
          <mxGeometry relative="1" as="geometry">
            <mxPoint x="71" y="309" as="sourcePoint" />
            <mxPoint x="231" y="309" as="targetPoint" />
          </mxGeometry>
        </mxCell>
        <mxCell id="6jUY_ZIcOzGlpgEevd6P-36" value="&lt;font style=&quot;font-size: 19px;&quot;&gt;Email:&lt;/font&gt;" style="text;html=1;align=center;verticalAlign=middle;whiteSpace=wrap;rounded=0;" parent="1" vertex="1">
          <mxGeometry x="-426" y="634" width="60" height="30" as="geometry" />
        </mxCell>
        <mxCell id="6jUY_ZIcOzGlpgEevd6P-37" value="" style="rounded=0;whiteSpace=wrap;html=1;" parent="1" vertex="1">
          <mxGeometry x="-422" y="671" width="370" height="29" as="geometry" />
        </mxCell>
        <mxCell id="6jUY_ZIcOzGlpgEevd6P-38" value="&lt;font style=&quot;font-size: 19px;&quot;&gt;Password&lt;/font&gt;" style="text;html=1;align=center;verticalAlign=middle;whiteSpace=wrap;rounded=0;" parent="1" vertex="1">
          <mxGeometry x="-426" y="721" width="82" height="30" as="geometry" />
        </mxCell>
        <mxCell id="6jUY_ZIcOzGlpgEevd6P-39" value="" style="rounded=0;whiteSpace=wrap;html=1;" parent="1" vertex="1">
          <mxGeometry x="-426" y="767" width="370" height="30" as="geometry" />
        </mxCell>
        <mxCell id="6jUY_ZIcOzGlpgEevd6P-40" value="&lt;font style=&quot;font-size: 16px;&quot;&gt;LOGIN&lt;/font&gt;" style="rounded=1;whiteSpace=wrap;html=1;" parent="1" vertex="1">
          <mxGeometry x="-342" y="821" width="202" height="33" as="geometry" />
        </mxCell>
        <mxCell id="6jUY_ZIcOzGlpgEevd6P-41" value="" style="rounded=0;whiteSpace=wrap;html=1;" parent="1" vertex="1">
          <mxGeometry x="264" y="470" width="464" height="558" as="geometry" />
        </mxCell>
        <mxCell id="6jUY_ZIcOzGlpgEevd6P-42" value="&lt;font style=&quot;font-size: 16px;&quot;&gt;Register&lt;/font&gt;" style="rounded=0;whiteSpace=wrap;html=1;fillColor=#1ba1e2;fontColor=#ffffff;strokeColor=#006EAF;" parent="1" vertex="1">
          <mxGeometry x="499" y="521" width="205.5" height="37" as="geometry" />
        </mxCell>
        <mxCell id="6jUY_ZIcOzGlpgEevd6P-43" value="&lt;font style=&quot;font-size: 16px;&quot;&gt;Login&lt;/font&gt;" style="rounded=0;whiteSpace=wrap;html=1;" parent="1" vertex="1">
          <mxGeometry x="278" y="521" width="201" height="37" as="geometry" />
        </mxCell>
        <mxCell id="6jUY_ZIcOzGlpgEevd6P-44" value="" style="shape=sumEllipse;perimeter=ellipsePerimeter;whiteSpace=wrap;html=1;backgroundOutline=1;" parent="1" vertex="1">
          <mxGeometry x="691" y="484" width="27" height="26" as="geometry" />
        </mxCell>
        <mxCell id="6jUY_ZIcOzGlpgEevd6P-45" value="&lt;font style=&quot;font-size: 19px;&quot;&gt;Email:&lt;/font&gt;" style="text;html=1;align=center;verticalAlign=middle;whiteSpace=wrap;rounded=0;" parent="1" vertex="1">
          <mxGeometry x="308" y="668" width="60" height="30" as="geometry" />
        </mxCell>
        <mxCell id="6jUY_ZIcOzGlpgEevd6P-46" value="" style="rounded=0;whiteSpace=wrap;html=1;" parent="1" vertex="1">
          <mxGeometry x="308" y="630" width="370" height="29" as="geometry" />
        </mxCell>
        <mxCell id="6jUY_ZIcOzGlpgEevd6P-47" value="&lt;font style=&quot;font-size: 19px;&quot;&gt;Password&lt;/font&gt;" style="text;html=1;align=center;verticalAlign=middle;whiteSpace=wrap;rounded=0;" parent="1" vertex="1">
          <mxGeometry x="308" y="758" width="82" height="30" as="geometry" />
        </mxCell>
        <mxCell id="6jUY_ZIcOzGlpgEevd6P-48" value="" style="rounded=0;whiteSpace=wrap;html=1;" parent="1" vertex="1">
          <mxGeometry x="308" y="804" width="370" height="30" as="geometry" />
        </mxCell>
        <mxCell id="6jUY_ZIcOzGlpgEevd6P-49" value="&lt;span style=&quot;font-size: 16px;&quot;&gt;COMFIRM&lt;/span&gt;" style="rounded=1;whiteSpace=wrap;html=1;" parent="1" vertex="1">
          <mxGeometry x="395" y="966" width="202" height="33" as="geometry" />
        </mxCell>
        <mxCell id="6jUY_ZIcOzGlpgEevd6P-60" value="&lt;span style=&quot;font-size: 19px;&quot;&gt;Full name&lt;/span&gt;" style="text;html=1;align=center;verticalAlign=middle;whiteSpace=wrap;rounded=0;" parent="1" vertex="1">
          <mxGeometry x="308" y="589" width="91" height="30" as="geometry" />
        </mxCell>
        <mxCell id="6jUY_ZIcOzGlpgEevd6P-61" value="" style="rounded=0;whiteSpace=wrap;html=1;" parent="1" vertex="1">
          <mxGeometry x="308" y="715" width="370" height="29" as="geometry" />
        </mxCell>
        <mxCell id="6jUY_ZIcOzGlpgEevd6P-62" value="&lt;span style=&quot;font-size: 19px;&quot;&gt;Enter your password&lt;/span&gt;" style="text;html=1;align=center;verticalAlign=middle;whiteSpace=wrap;rounded=0;" parent="1" vertex="1">
          <mxGeometry x="308" y="857" width="188" height="30" as="geometry" />
        </mxCell>
        <mxCell id="6jUY_ZIcOzGlpgEevd6P-63" value="" style="rounded=0;whiteSpace=wrap;html=1;" parent="1" vertex="1">
          <mxGeometry x="308" y="905" width="370" height="30" as="geometry" />
        </mxCell>
        <mxCell id="6jUY_ZIcOzGlpgEevd6P-64" value="" style="rounded=0;whiteSpace=wrap;html=1;" parent="1" vertex="1">
          <mxGeometry x="-499" y="1057" width="435" height="706" as="geometry" />
        </mxCell>
        <mxCell id="6jUY_ZIcOzGlpgEevd6P-65" value="" style="endArrow=none;html=1;rounded=0;entryX=1;entryY=0.25;entryDx=0;entryDy=0;exitX=0;exitY=0.25;exitDx=0;exitDy=0;" parent="1" source="6jUY_ZIcOzGlpgEevd6P-64" target="6jUY_ZIcOzGlpgEevd6P-64" edge="1">
          <mxGeometry width="50" height="50" relative="1" as="geometry">
            <mxPoint x="-371" y="1251" as="sourcePoint" />
            <mxPoint x="-321" y="1201" as="targetPoint" />
          </mxGeometry>
        </mxCell>
        <mxCell id="6jUY_ZIcOzGlpgEevd6P-66" value="&lt;div style=&quot;text-align: justify;&quot;&gt;&lt;span style=&quot;background-color: transparent; color: light-dark(rgb(0, 0, 0), rgb(255, 255, 255));&quot;&gt;&lt;font style=&quot;font-size: 25px;&quot;&gt;Text Shop&lt;/font&gt;&lt;/span&gt;&lt;/div&gt;" style="text;html=1;align=center;verticalAlign=middle;whiteSpace=wrap;rounded=0;" parent="1" vertex="1">
          <mxGeometry x="-484" y="1123" width="405" height="84" as="geometry" />
        </mxCell>
        <mxCell id="6jUY_ZIcOzGlpgEevd6P-67" value="" style="verticalLabelPosition=bottom;html=1;verticalAlign=top;align=center;strokeColor=none;fillColor=#00BEF2;shape=mxgraph.azure.mobile;pointerEvents=1;" parent="1" vertex="1">
          <mxGeometry x="-449" y="1353" width="35" height="50" as="geometry" />
        </mxCell>
        <mxCell id="6jUY_ZIcOzGlpgEevd6P-68" value="" style="image;aspect=fixed;perimeter=ellipsePerimeter;html=1;align=center;shadow=0;dashed=0;spacingTop=3;image=img/lib/active_directory/phone.svg;" parent="1" vertex="1">
          <mxGeometry x="-456.5" y="1270" width="50" height="39.5" as="geometry" />
        </mxCell>
        <mxCell id="6jUY_ZIcOzGlpgEevd6P-69" value="" style="html=1;verticalLabelPosition=bottom;align=center;labelBackgroundColor=#ffffff;verticalAlign=top;strokeWidth=2;strokeColor=#0080F0;shadow=0;dashed=0;shape=mxgraph.ios7.icons.mail;" parent="1" vertex="1">
          <mxGeometry x="-456.5" y="1447" width="45" height="28" as="geometry" />
        </mxCell>
        <mxCell id="6jUY_ZIcOzGlpgEevd6P-70" value="&lt;span style=&quot;font-size: 26px;&quot;&gt;Address:&amp;nbsp;&lt;/span&gt;" style="text;html=1;align=center;verticalAlign=middle;whiteSpace=wrap;rounded=0;" parent="1" vertex="1">
          <mxGeometry x="-470" y="1519" width="99" height="42" as="geometry" />
        </mxCell>
        <mxCell id="6jUY_ZIcOzGlpgEevd6P-71" value="&lt;div style=&quot;&quot;&gt;&lt;span style=&quot;font-size: 26px; background-color: transparent; color: light-dark(rgb(0, 0, 0), rgb(255, 255, 255));&quot;&gt;Note&lt;/span&gt;&lt;/div&gt;" style="text;html=1;align=center;verticalAlign=middle;whiteSpace=wrap;rounded=0;" parent="1" vertex="1">
          <mxGeometry x="-481" y="1610" width="399" height="126" as="geometry" />
        </mxCell>
        <mxCell id="6jUY_ZIcOzGlpgEevd6P-72" value="&lt;font style=&quot;font-size: 26px;&quot;&gt;0123.456.789&lt;/font&gt;" style="text;html=1;align=center;verticalAlign=middle;whiteSpace=wrap;rounded=0;" parent="1" vertex="1">
          <mxGeometry x="-374.5" y="1356" width="186" height="42" as="geometry" />
        </mxCell>
        <mxCell id="6jUY_ZIcOzGlpgEevd6P-73" value="&lt;font style=&quot;font-size: 26px;&quot;&gt;0987.654.321&lt;/font&gt;" style="text;html=1;align=center;verticalAlign=middle;whiteSpace=wrap;rounded=0;" parent="1" vertex="1">
          <mxGeometry x="-368" y="1268.75" width="173" height="42" as="geometry" />
        </mxCell>
        <mxCell id="6jUY_ZIcOzGlpgEevd6P-75" value="&lt;font style=&quot;font-size: 26px;&quot;&gt;Text@gmail.com&lt;/font&gt;" style="text;html=1;align=center;verticalAlign=middle;whiteSpace=wrap;rounded=0;" parent="1" vertex="1">
          <mxGeometry x="-377" y="1440" width="221" height="42" as="geometry" />
        </mxCell>
        <mxCell id="6jUY_ZIcOzGlpgEevd6P-76" value="&lt;font style=&quot;font-size: 26px;&quot;&gt;Text&lt;/font&gt;" style="text;html=1;align=left;verticalAlign=middle;whiteSpace=wrap;rounded=0;" parent="1" vertex="1">
          <mxGeometry x="-366" y="1524" width="253" height="42" as="geometry" />
        </mxCell>
        <mxCell id="6jUY_ZIcOzGlpgEevd6P-78" value="" style="endArrow=none;html=1;rounded=0;exitX=0;exitY=0.75;exitDx=0;exitDy=0;entryX=1;entryY=0.75;entryDx=0;entryDy=0;" parent="1" source="6jUY_ZIcOzGlpgEevd6P-64" target="6jUY_ZIcOzGlpgEevd6P-64" edge="1">
          <mxGeometry width="50" height="50" relative="1" as="geometry">
            <mxPoint x="-352" y="1641" as="sourcePoint" />
            <mxPoint x="-302" y="1591" as="targetPoint" />
          </mxGeometry>
        </mxCell>
        <mxCell id="6jUY_ZIcOzGlpgEevd6P-80" value="Text" style="text;html=1;align=center;verticalAlign=middle;whiteSpace=wrap;rounded=0;" parent="1" vertex="1">
          <mxGeometry x="-194" y="74" width="60" height="30" as="geometry" />
        </mxCell>
        <mxCell id="6jUY_ZIcOzGlpgEevd6P-81" value="Text" style="text;html=1;align=center;verticalAlign=middle;whiteSpace=wrap;rounded=0;" parent="1" vertex="1">
          <mxGeometry x="-19" y="74" width="60" height="30" as="geometry" />
        </mxCell>
        <mxCell id="6jUY_ZIcOzGlpgEevd6P-82" value="Text" style="text;html=1;align=center;verticalAlign=middle;whiteSpace=wrap;rounded=0;" parent="1" vertex="1">
          <mxGeometry x="172" y="74" width="60" height="30" as="geometry" />
        </mxCell>
        <mxCell id="6jUY_ZIcOzGlpgEevd6P-83" value="Text" style="text;html=1;align=center;verticalAlign=middle;whiteSpace=wrap;rounded=0;" parent="1" vertex="1">
          <mxGeometry x="345" y="74" width="60" height="30" as="geometry" />
        </mxCell>
        <mxCell id="6jUY_ZIcOzGlpgEevd6P-84" value="Text" style="text;html=1;align=center;verticalAlign=middle;whiteSpace=wrap;rounded=0;" parent="1" vertex="1">
          <mxGeometry x="-19" y="198" width="60" height="30" as="geometry" />
        </mxCell>
        <mxCell id="6jUY_ZIcOzGlpgEevd6P-85" value="Text" style="text;html=1;align=center;verticalAlign=middle;whiteSpace=wrap;rounded=0;" parent="1" vertex="1">
          <mxGeometry x="-193" y="194" width="60" height="30" as="geometry" />
        </mxCell>
        <mxCell id="6jUY_ZIcOzGlpgEevd6P-86" value="Text" style="text;html=1;align=center;verticalAlign=middle;whiteSpace=wrap;rounded=0;" parent="1" vertex="1">
          <mxGeometry x="172" y="194" width="60" height="30" as="geometry" />
        </mxCell>
        <mxCell id="6jUY_ZIcOzGlpgEevd6P-87" value="Text" style="text;html=1;align=center;verticalAlign=middle;whiteSpace=wrap;rounded=0;" parent="1" vertex="1">
          <mxGeometry x="346" y="198" width="60" height="30" as="geometry" />
        </mxCell>
        <mxCell id="6jUY_ZIcOzGlpgEevd6P-88" value="" style="rounded=0;whiteSpace=wrap;html=1;" parent="1" vertex="1">
          <mxGeometry x="-230" y="-174" width="663" height="117" as="geometry" />
        </mxCell>
        <mxCell id="6jUY_ZIcOzGlpgEevd6P-89" value="" style="endArrow=none;html=1;rounded=0;entryX=1;entryY=0;entryDx=0;entryDy=0;exitX=0;exitY=1;exitDx=0;exitDy=0;" parent="1" source="6jUY_ZIcOzGlpgEevd6P-88" target="6jUY_ZIcOzGlpgEevd6P-88" edge="1">
          <mxGeometry width="50" height="50" relative="1" as="geometry">
            <mxPoint x="79" y="191" as="sourcePoint" />
            <mxPoint x="129" y="141" as="targetPoint" />
          </mxGeometry>
        </mxCell>
        <mxCell id="6jUY_ZIcOzGlpgEevd6P-90" value="" style="endArrow=none;html=1;rounded=0;entryX=1;entryY=1;entryDx=0;entryDy=0;exitX=0;exitY=0;exitDx=0;exitDy=0;" parent="1" source="6jUY_ZIcOzGlpgEevd6P-88" target="6jUY_ZIcOzGlpgEevd6P-88" edge="1">
          <mxGeometry width="50" height="50" relative="1" as="geometry">
            <mxPoint x="-235" y="-169" as="sourcePoint" />
            <mxPoint x="-138" y="-147" as="targetPoint" />
          </mxGeometry>
        </mxCell>
        <mxCell id="6jUY_ZIcOzGlpgEevd6P-91" value="&lt;font style=&quot;font-size: 17px;&quot;&gt;Banner Picture&lt;/font&gt;" style="text;html=1;align=center;verticalAlign=middle;whiteSpace=wrap;rounded=0;" parent="1" vertex="1">
          <mxGeometry x="-221" y="-130" width="120" height="46" as="geometry" />
        </mxCell>
        <mxCell id="6jUY_ZIcOzGlpgEevd6P-92" value="" style="endArrow=none;html=1;rounded=0;entryX=1;entryY=0.75;entryDx=0;entryDy=0;exitX=0;exitY=1;exitDx=0;exitDy=0;" parent="1" source="6jUY_ZIcOzGlpgEevd6P-2" target="6jUY_ZIcOzGlpgEevd6P-2" edge="1">
          <mxGeometry width="50" height="50" relative="1" as="geometry">
            <mxPoint x="46" y="370" as="sourcePoint" />
            <mxPoint x="96" y="320" as="targetPoint" />
          </mxGeometry>
        </mxCell>
        <mxCell id="6jUY_ZIcOzGlpgEevd6P-93" value="" style="endArrow=none;html=1;rounded=0;entryX=0;entryY=0.75;entryDx=0;entryDy=0;exitX=1;exitY=1;exitDx=0;exitDy=0;" parent="1" source="6jUY_ZIcOzGlpgEevd6P-2" target="6jUY_ZIcOzGlpgEevd6P-2" edge="1">
          <mxGeometry width="50" height="50" relative="1" as="geometry">
            <mxPoint x="-130" y="348" as="sourcePoint" />
            <mxPoint x="-80" y="298" as="targetPoint" />
          </mxGeometry>
        </mxCell>
        <mxCell id="6jUY_ZIcOzGlpgEevd6P-94" value="&lt;span style=&quot;font-size: 22px;&quot;&gt;Contact&lt;/span&gt;" style="text;html=1;align=center;verticalAlign=middle;whiteSpace=wrap;rounded=0;" parent="1" vertex="1">
          <mxGeometry x="-252" y="301" width="157" height="55" as="geometry" />
        </mxCell>
        <mxCell id="6jUY_ZIcOzGlpgEevd6P-95" value="&lt;span style=&quot;font-size: 16px;&quot;&gt;Contact&lt;/span&gt;" style="text;html=1;align=center;verticalAlign=middle;whiteSpace=wrap;rounded=0;" parent="1" vertex="1">
          <mxGeometry x="-342" y="1079" width="121" height="30" as="geometry" />
        </mxCell>
        <mxCell id="6jUY_ZIcOzGlpgEevd6P-96" value="" style="rounded=0;whiteSpace=wrap;html=1;" parent="1" vertex="1">
          <mxGeometry x="178" y="1140" width="584" height="1113" as="geometry" />
        </mxCell>
        <mxCell id="DaYDxkItDUn4KuGdHpnd-1" value="" style="points=[];aspect=fixed;html=1;align=center;shadow=0;dashed=0;fillColor=#FF6A00;strokeColor=none;shape=mxgraph.alibaba_cloud.user;" vertex="1" parent="1">
          <mxGeometry x="216" y="1187" width="62" height="62" as="geometry" />
        </mxCell>
        <mxCell id="DaYDxkItDUn4KuGdHpnd-2" value="&lt;pre style=&quot;font-size: 28px; line-height: 36px; border: none; padding: 2px 0.14em 2px 0px; position: relative; margin: -2px 0px; resize: none; font-family: inherit; overflow: hidden; width: 270px; text-wrap-mode: wrap; overflow-wrap: break-word;&quot; aria-label=&quot;Bản dịch: account profile&quot; dir=&quot;ltr&quot; data-ved=&quot;2ahUKEwity_WXw-SOAxXlUPUHHR9tAdsQ3ewLegQICRAV&quot; id=&quot;tw-target-text&quot; data-placeholder=&quot;Bản dịch&quot; class=&quot;tw-data-text tw-text-large tw-ta&quot;&gt;&lt;span style=&quot;&quot; lang=&quot;en&quot; class=&quot;Y2IQFc&quot;&gt;&lt;font style=&quot;color: light-dark(rgb(255, 255, 255), rgb(255, 255, 255));&quot;&gt;account profile&lt;/font&gt;&lt;/span&gt;&lt;/pre&gt;" style="text;html=1;align=left;verticalAlign=middle;whiteSpace=wrap;rounded=0;" vertex="1" parent="1">
          <mxGeometry x="302" y="1190" width="288" height="59" as="geometry" />
        </mxCell>
        <mxCell id="DaYDxkItDUn4KuGdHpnd-3" value="" style="shape=sumEllipse;perimeter=ellipsePerimeter;whiteSpace=wrap;html=1;backgroundOutline=1;" vertex="1" parent="1">
          <mxGeometry x="704.5" y="1173" width="33" height="34" as="geometry" />
        </mxCell>
        <mxCell id="DaYDxkItDUn4KuGdHpnd-4" value="&lt;span style=&quot;font-size: 22px;&quot;&gt;Name&lt;/span&gt;" style="text;html=1;align=left;verticalAlign=middle;whiteSpace=wrap;rounded=0;" vertex="1" parent="1">
          <mxGeometry x="216" y="1297" width="155" height="30" as="geometry" />
        </mxCell>
        <mxCell id="DaYDxkItDUn4KuGdHpnd-5" value="" style="rounded=0;whiteSpace=wrap;html=1;" vertex="1" parent="1">
          <mxGeometry x="215.5" y="1486" width="509" height="41" as="geometry" />
        </mxCell>
        <mxCell id="DaYDxkItDUn4KuGdHpnd-6" value="&lt;span style=&quot;font-size: 22px;&quot;&gt;Email&lt;/span&gt;" style="text;html=1;align=left;verticalAlign=middle;whiteSpace=wrap;rounded=0;" vertex="1" parent="1">
          <mxGeometry x="216" y="1427" width="155" height="30" as="geometry" />
        </mxCell>
        <mxCell id="DaYDxkItDUn4KuGdHpnd-7" value="" style="rounded=0;whiteSpace=wrap;html=1;" vertex="1" parent="1">
          <mxGeometry x="215.5" y="1353" width="509" height="41" as="geometry" />
        </mxCell>
        <mxCell id="DaYDxkItDUn4KuGdHpnd-8" value="&lt;font style=&quot;font-size: 22px;&quot;&gt;Phone number&lt;/font&gt;" style="text;html=1;align=left;verticalAlign=middle;whiteSpace=wrap;rounded=0;" vertex="1" parent="1">
          <mxGeometry x="213" y="1561" width="155" height="30" as="geometry" />
        </mxCell>
        <mxCell id="DaYDxkItDUn4KuGdHpnd-9" value="&lt;span style=&quot;font-size: 22px;&quot;&gt;Address&lt;/span&gt;" style="text;html=1;align=left;verticalAlign=middle;whiteSpace=wrap;rounded=0;" vertex="1" parent="1">
          <mxGeometry x="213" y="1698" width="155" height="30" as="geometry" />
        </mxCell>
        <mxCell id="DaYDxkItDUn4KuGdHpnd-10" value="&lt;span style=&quot;font-size: 22px;&quot;&gt;Sex&lt;/span&gt;" style="text;html=1;align=left;verticalAlign=middle;whiteSpace=wrap;rounded=0;" vertex="1" parent="1">
          <mxGeometry x="216" y="1988" width="155" height="30" as="geometry" />
        </mxCell>
        <mxCell id="DaYDxkItDUn4KuGdHpnd-11" value="&lt;font style=&quot;font-size: 22px;&quot;&gt;Date of birth&lt;/font&gt;" style="text;html=1;align=left;verticalAlign=middle;whiteSpace=wrap;rounded=0;" vertex="1" parent="1">
          <mxGeometry x="216" y="1866" width="155" height="30" as="geometry" />
        </mxCell>
        <mxCell id="DaYDxkItDUn4KuGdHpnd-12" value="" style="rounded=0;whiteSpace=wrap;html=1;" vertex="1" parent="1">
          <mxGeometry x="213" y="1625" width="509" height="45" as="geometry" />
        </mxCell>
        <mxCell id="DaYDxkItDUn4KuGdHpnd-13" value="" style="rounded=0;whiteSpace=wrap;html=1;" vertex="1" parent="1">
          <mxGeometry x="215.5" y="1750" width="509" height="92" as="geometry" />
        </mxCell>
        <mxCell id="DaYDxkItDUn4KuGdHpnd-14" value="" style="rounded=0;whiteSpace=wrap;html=1;" vertex="1" parent="1">
          <mxGeometry x="213" y="1909" width="509" height="41" as="geometry" />
        </mxCell>
        <mxCell id="DaYDxkItDUn4KuGdHpnd-69" value="" style="html=1;verticalLabelPosition=bottom;align=center;labelBackgroundColor=#ffffff;verticalAlign=top;strokeWidth=2;strokeColor=#0080F0;shadow=0;dashed=0;shape=mxgraph.ios7.icons.calendar;" vertex="1" parent="1">
          <mxGeometry x="683" y="1914.5" width="30" height="30" as="geometry" />
        </mxCell>
        <mxCell id="DaYDxkItDUn4KuGdHpnd-70" value="&lt;font style=&quot;font-size: 20px;&quot;&gt;Update Ìnomation&lt;/font&gt;" style="rounded=0;whiteSpace=wrap;html=1;" vertex="1" parent="1">
          <mxGeometry x="225" y="2118" width="230" height="42" as="geometry" />
        </mxCell>
        <mxCell id="DaYDxkItDUn4KuGdHpnd-72" value="&lt;font style=&quot;font-size: 20px;&quot;&gt;change password&lt;/font&gt;" style="rounded=0;whiteSpace=wrap;html=1;" vertex="1" parent="1">
          <mxGeometry x="483" y="2118" width="230" height="42" as="geometry" />
        </mxCell>
        <mxCell id="DaYDxkItDUn4KuGdHpnd-73" value="&lt;font style=&quot;font-size: 21px;&quot;&gt;Log Out&lt;/font&gt;" style="rounded=0;whiteSpace=wrap;html=1;" vertex="1" parent="1">
          <mxGeometry x="226" y="2182" width="485" height="43" as="geometry" />
        </mxCell>
        <mxCell id="DaYDxkItDUn4KuGdHpnd-74" value="Option" style="strokeWidth=1;shadow=0;dashed=0;align=center;html=1;shape=mxgraph.mockup.forms.comboBox;align=left;fillColor2=#aaddff;mainText=;fontSize=17;spacingLeft=3;" vertex="1" parent="1">
          <mxGeometry x="216" y="2033" width="507" height="45" as="geometry" />
        </mxCell>
        <mxCell id="DaYDxkItDUn4KuGdHpnd-75" value="Brand" style="strokeWidth=1;shadow=0;dashed=0;align=center;html=1;shape=mxgraph.mockup.forms.comboBox;align=left;fillColor2=#aaddff;mainText=;fontSize=17;spacingLeft=3;" vertex="1" parent="1">
          <mxGeometry x="-142" y="-264.75" width="99" height="30" as="geometry" />
        </mxCell>
        <mxCell id="DaYDxkItDUn4KuGdHpnd-76" value="Product catalog" style="strokeWidth=1;shadow=0;dashed=0;align=center;html=1;shape=mxgraph.mockup.forms.comboBox;align=left;fillColor2=#aaddff;mainText=;fontSize=17;spacingLeft=3;" vertex="1" parent="1">
          <mxGeometry x="-259" y="-33" width="167" height="27" as="geometry" />
        </mxCell>
        <mxCell id="DaYDxkItDUn4KuGdHpnd-77" value="" style="html=1;verticalLabelPosition=bottom;align=center;labelBackgroundColor=#ffffff;verticalAlign=top;strokeWidth=2;strokeColor=#0080F0;shadow=0;dashed=0;shape=mxgraph.ios7.icons.looking_glass;" vertex="1" parent="1">
          <mxGeometry x="104" y="-260" width="14" height="17" as="geometry" />
        </mxCell>
        <mxCell id="DaYDxkItDUn4KuGdHpnd-78" value="" style="rounded=0;whiteSpace=wrap;html=1;" vertex="1" parent="1">
          <mxGeometry x="997" y="441" width="677" height="468" as="geometry" />
        </mxCell>
        <mxCell id="DaYDxkItDUn4KuGdHpnd-79" value="&lt;font style=&quot;font-size: 30px;&quot;&gt;shopping cart&lt;/font&gt;" style="text;html=1;align=left;verticalAlign=middle;whiteSpace=wrap;rounded=0;" vertex="1" parent="1">
          <mxGeometry x="1027" y="472" width="231" height="79" as="geometry" />
        </mxCell>
        <mxCell id="DaYDxkItDUn4KuGdHpnd-81" value="&lt;font style=&quot;font-size: 24px;&quot;&gt;Close&lt;/font&gt;" style="rounded=1;whiteSpace=wrap;html=1;" vertex="1" parent="1">
          <mxGeometry x="1553" y="478" width="96" height="43" as="geometry" />
        </mxCell>
        <mxCell id="DaYDxkItDUn4KuGdHpnd-83" value="" style="rounded=1;whiteSpace=wrap;html=1;" vertex="1" parent="1">
          <mxGeometry x="1050" y="622" width="581" height="60" as="geometry" />
        </mxCell>
        <mxCell id="DaYDxkItDUn4KuGdHpnd-84" value="&lt;font style=&quot;font-size: 24px;&quot;&gt;Product name&lt;/font&gt;" style="text;html=1;align=center;verticalAlign=middle;whiteSpace=wrap;rounded=0;" vertex="1" parent="1">
          <mxGeometry x="1071" y="637" width="169" height="30" as="geometry" />
        </mxCell>
        <mxCell id="DaYDxkItDUn4KuGdHpnd-85" value="&lt;font style=&quot;font-size: 24px;&quot;&gt;...$&lt;/font&gt;" style="text;html=1;align=center;verticalAlign=middle;whiteSpace=wrap;rounded=0;" vertex="1" parent="1">
          <mxGeometry x="1258" y="637" width="169" height="30" as="geometry" />
        </mxCell>
        <mxCell id="DaYDxkItDUn4KuGdHpnd-86" value="&lt;font style=&quot;font-size: 20px;&quot;&gt;Delete&lt;/font&gt;" style="rounded=0;whiteSpace=wrap;html=1;" vertex="1" parent="1">
          <mxGeometry x="1540" y="634" width="75" height="35" as="geometry" />
        </mxCell>
        <mxCell id="DaYDxkItDUn4KuGdHpnd-87" value="&lt;span style=&quot;font-size: 22px;&quot;&gt;total:&amp;nbsp;&lt;/span&gt;" style="text;html=1;align=left;verticalAlign=middle;whiteSpace=wrap;rounded=0;" vertex="1" parent="1">
          <mxGeometry x="1383" y="747" width="254" height="41" as="geometry" />
        </mxCell>
        <mxCell id="DaYDxkItDUn4KuGdHpnd-88" value="&lt;font style=&quot;font-size: 29px;&quot;&gt;purchase confirmation&lt;/font&gt;" style="rounded=1;whiteSpace=wrap;html=1;" vertex="1" parent="1">
          <mxGeometry x="1125" y="845" width="455" height="45" as="geometry" />
        </mxCell>
        <mxCell id="DaYDxkItDUn4KuGdHpnd-89" value="" style="rounded=0;whiteSpace=wrap;html=1;" vertex="1" parent="1">
          <mxGeometry x="980" y="1049" width="696" height="1244" as="geometry" />
        </mxCell>
        <mxCell id="DaYDxkItDUn4KuGdHpnd-91" value="&lt;font style=&quot;font-size: 25px;&quot;&gt;Order Confirmation&lt;/font&gt;" style="text;html=1;align=left;verticalAlign=middle;whiteSpace=wrap;rounded=0;" vertex="1" parent="1">
          <mxGeometry x="1006" y="1091" width="346" height="61" as="geometry" />
        </mxCell>
        <mxCell id="DaYDxkItDUn4KuGdHpnd-92" value="&lt;font style=&quot;font-size: 20px;&quot;&gt;Close&lt;/font&gt;" style="rounded=1;whiteSpace=wrap;html=1;" vertex="1" parent="1">
          <mxGeometry x="1576" y="1091" width="73" height="35" as="geometry" />
        </mxCell>
        <mxCell id="DaYDxkItDUn4KuGdHpnd-93" value="&lt;font style=&quot;font-size: 25px;&quot;&gt;consignee name&lt;/font&gt;" style="text;html=1;align=left;verticalAlign=middle;whiteSpace=wrap;rounded=0;" vertex="1" parent="1">
          <mxGeometry x="1040" y="1200" width="202" height="39" as="geometry" />
        </mxCell>
        <mxCell id="DaYDxkItDUn4KuGdHpnd-94" value="" style="rounded=0;whiteSpace=wrap;html=1;" vertex="1" parent="1">
          <mxGeometry x="1045" y="1276" width="586" height="48" as="geometry" />
        </mxCell>
        <mxCell id="DaYDxkItDUn4KuGdHpnd-95" value="&lt;span style=&quot;font-size: 25px;&quot;&gt;Address&lt;/span&gt;" style="text;html=1;align=left;verticalAlign=middle;whiteSpace=wrap;rounded=0;" vertex="1" parent="1">
          <mxGeometry x="1040" y="1371" width="112" height="39" as="geometry" />
        </mxCell>
        <mxCell id="DaYDxkItDUn4KuGdHpnd-96" value="&lt;span style=&quot;font-size: 25px;&quot;&gt;Phone number&lt;/span&gt;" style="text;html=1;align=left;verticalAlign=middle;whiteSpace=wrap;rounded=0;" vertex="1" parent="1">
          <mxGeometry x="1040" y="1519" width="218" height="39" as="geometry" />
        </mxCell>
        <mxCell id="DaYDxkItDUn4KuGdHpnd-97" value="&lt;font style=&quot;font-size: 25px;&quot;&gt;Product name&lt;/font&gt;" style="text;html=1;align=left;verticalAlign=middle;whiteSpace=wrap;rounded=0;" vertex="1" parent="1">
          <mxGeometry x="1050" y="1730" width="172" height="39" as="geometry" />
        </mxCell>
        <mxCell id="DaYDxkItDUn4KuGdHpnd-99" value="&lt;span style=&quot;font-size: 25px;&quot;&gt;Voucher&lt;/span&gt;" style="text;html=1;align=left;verticalAlign=middle;whiteSpace=wrap;rounded=0;" vertex="1" parent="1">
          <mxGeometry x="1096" y="1875.5" width="120" height="39" as="geometry" />
        </mxCell>
        <mxCell id="DaYDxkItDUn4KuGdHpnd-100" value="&lt;font style=&quot;font-size: 25px;&quot;&gt;........$&lt;/font&gt;" style="text;html=1;align=left;verticalAlign=middle;whiteSpace=wrap;rounded=0;" vertex="1" parent="1">
          <mxGeometry x="1334" y="1730" width="85" height="39" as="geometry" />
        </mxCell>
        <mxCell id="DaYDxkItDUn4KuGdHpnd-101" value="" style="rounded=0;whiteSpace=wrap;html=1;" vertex="1" parent="1">
          <mxGeometry x="1040" y="1434" width="586" height="48" as="geometry" />
        </mxCell>
        <mxCell id="DaYDxkItDUn4KuGdHpnd-102" value="" style="rounded=0;whiteSpace=wrap;html=1;" vertex="1" parent="1">
          <mxGeometry x="1040" y="1594" width="586" height="48" as="geometry" />
        </mxCell>
        <mxCell id="DaYDxkItDUn4KuGdHpnd-104" value="%" style="strokeWidth=1;shadow=0;dashed=0;align=center;html=1;shape=mxgraph.mockup.forms.comboBox;align=left;fillColor2=#aaddff;mainText=;fontSize=17;spacingLeft=3;" vertex="1" parent="1">
          <mxGeometry x="1272" y="1880" width="150" height="30" as="geometry" />
        </mxCell>
        <mxCell id="DaYDxkItDUn4KuGdHpnd-105" value="&lt;span style=&quot;font-size: 25px;&quot;&gt;Payment method&lt;/span&gt;" style="text;html=1;align=left;verticalAlign=middle;whiteSpace=wrap;rounded=0;" vertex="1" parent="1">
          <mxGeometry x="1033.5" y="1961" width="218" height="39" as="geometry" />
        </mxCell>
        <mxCell id="DaYDxkItDUn4KuGdHpnd-108" value="" style="html=1;verticalLabelPosition=bottom;labelBackgroundColor=#ffffff;verticalAlign=top;shadow=0;dashed=0;strokeWidth=2;shape=mxgraph.ios7.misc.select;fillColor=#0080f0;strokeColor=#ffffff;sketch=0;" vertex="1" parent="1">
          <mxGeometry x="1059" y="2029" width="33" height="30" as="geometry" />
        </mxCell>
        <mxCell id="DaYDxkItDUn4KuGdHpnd-110" value="" style="html=1;verticalLabelPosition=bottom;labelBackgroundColor=#ffffff;verticalAlign=top;shadow=0;dashed=0;strokeWidth=2;shape=mxgraph.ios7.misc.select;fillColor=#0080f0;strokeColor=#ffffff;sketch=0;" vertex="1" parent="1">
          <mxGeometry x="1379" y="2021" width="32" height="30" as="geometry" />
        </mxCell>
        <mxCell id="DaYDxkItDUn4KuGdHpnd-111" value="&lt;font style=&quot;font-size: 23px;&quot;&gt;Cash on Delivery&lt;/font&gt;" style="text;html=1;align=left;verticalAlign=middle;whiteSpace=wrap;rounded=0;" vertex="1" parent="1">
          <mxGeometry x="1099" y="2029" width="236" height="30" as="geometry" />
        </mxCell>
        <mxCell id="DaYDxkItDUn4KuGdHpnd-112" value="&lt;font style=&quot;font-size: 23px;&quot;&gt;use credit card&lt;/font&gt;" style="text;html=1;align=left;verticalAlign=middle;whiteSpace=wrap;rounded=0;" vertex="1" parent="1">
          <mxGeometry x="1422" y="2023" width="236" height="30" as="geometry" />
        </mxCell>
        <mxCell id="DaYDxkItDUn4KuGdHpnd-114" value="&lt;span style=&quot;font-size: 25px;&quot;&gt;Total: ...&lt;/span&gt;" style="text;html=1;align=left;verticalAlign=middle;whiteSpace=wrap;rounded=0;" vertex="1" parent="1">
          <mxGeometry x="1301" y="2078" width="103" height="50" as="geometry" />
        </mxCell>
        <mxCell id="DaYDxkItDUn4KuGdHpnd-116" value="&lt;font style=&quot;font-size: 25px;&quot;&gt;Pay: ...&lt;/font&gt;" style="text;html=1;align=left;verticalAlign=middle;whiteSpace=wrap;rounded=0;" vertex="1" parent="1">
          <mxGeometry x="1324" y="2136" width="103" height="50" as="geometry" />
        </mxCell>
        <mxCell id="DaYDxkItDUn4KuGdHpnd-117" value="&lt;font style=&quot;font-size: 30px;&quot;&gt;Order Confirmation&lt;/font&gt;" style="rounded=1;whiteSpace=wrap;html=1;" vertex="1" parent="1">
          <mxGeometry x="1108" y="2208" width="461" height="51" as="geometry" />
        </mxCell>
      </root>
    </mxGraphModel>
  </diagram>
</mxfile>
